<?xml version="1.0" encoding="UTF-8"?>
<svg id="Livello_1" xmlns="http://www.w3.org/2000/svg" version="1.1" viewBox="0 0 800 277.8">
  <!-- Generator: Adobe Illustrator 30.0.0, SVG Export Plug-In . SVG Version: 2.1.1 Build 123)  -->
  <defs>
    <style>
      .st0 {
        isolation: isolate;
      }

      .st1 {
        fill: #fff;
      }
    </style>
  </defs>
  <g>
    <path class="st1" d="M124.5,24.4c-8.3,4.1-16.6,8.1-24.9,12.2h0c5.1,1.9,10.1,3.9,15.2,5.8,3.1,1.2,6.9,2.7,8.2,6.4,1.4,3.8-.7,7.2-2.5,10.1-2.8,4.3-5.5,8.7-8.3,13-9.8,15.4-19.7,30.8-29.6,46.2v-14.3h0c3.8-11.9,7.5-23.8,11-35.8,1-3.4,2-6.8,3-10.2.6-2,.2-3.3-1.8-4.2-5-2.5-10.1-5-15.1-7.5-5,2.5-10.1,5-15.1,7.5s-2.4,2.2-1.8,4.2c1,3.4,2,6.8,3,10.2,3.6,12,7.2,23.9,11,35.8h0v14.3c-9.9-15.4-19.7-30.8-29.6-46.2-2.8-4.3-5.5-8.7-8.3-13-1.8-2.9-3.9-6.3-2.5-10.1,1.4-3.7,5.1-5.2,8.2-6.4,5.1-2,10.1-3.9,15.2-5.8-8.3-4.1-16.6-8.1-24.9-12.2h0c2.6,4.3,5.2,8.7,7.8,13-4.3,1.6-8.6,3.3-12.9,4.9C20.8,28.2,11.8,14.1,2.8,0c25.6,9.1,51.2,18.2,76.9,27,25.7-8.8,51.3-17.9,76.9-27-9,14.1-18,28.2-27,42.3-4.3-1.7-8.6-3.3-12.9-4.9,2.6-4.3,5.2-8.7,7.8-13"/>
    <path class="st1" d="M597.7,45.8v12.7h68.1c1.4,0,2.6-1.1,2.6-2.4v-7.8c0-1.3-1.2-2.4-2.6-2.4h-68.1v-.1ZM580.5,87.9v-54h88.3c8.2,0,14.9,5,14.9,12.6v11.2c0,7.8-5.2,13.1-10.4,13.1l11.8,17.1h-19.2l-10.1-16.4h-57.9v16.4h-17.4,0Z"/>
    <path class="st1" d="M319.1,88.8h-90.6c-8.4,0-15.2-6.3-15.2-14.1v-27.2c0-7.8,6.8-14.1,15.2-14.1h90.6v15.2h-87.6c-1.5,0-2.7,1.1-2.7,2.5v20.1c0,1.4,1.2,2.5,2.7,2.5h87.6v15.2h0v-.1ZM439.4,33.5v41.3c0,7.8-6.8,14.1-15.2,14.1h-75.5c-8.4,0-15.2-6.3-15.2-14.1v-41.3h18.2v37.7c0,1.4,1.2,2.5,2.7,2.5h64.2c1.5,0,2.7-1.1,2.7-2.5v-37.7h18.2s-.1,0-.1,0ZM782.9,58.5v-13h-69.2c-1.5,0-2.7,1.1-2.7,2.5v10.5c0-.2,47.2,0,71.9,0M800,88.8h-17.1v-16.9h-71.7v16.9h-17.1l-.2-41.3c0-7.8,6.8-14.1,15.2-14.1h90.9v55.4h0ZM470.6,58.6h70.7c1.5,0,2.7-1.1,2.7-2.5v-8c0-1.4-1.2-2.5-2.7-2.5h-70.7v13h0ZM544.3,33.5c11.2,0,15.2,5.2,15.2,12.9v11.4c0,7.8-3.4,14.1-15.2,14.1h-73.7v16.9h-17.1v-55.4h90.9l-.1.1Z"/>
  </g>
  <g>
    <g>
      <polygon class="st1" points="0 256 25 138.7 73.8 138.7 70.1 155.5 40.2 155.5 33.4 188.2 56.7 188.2 53.1 204.9 29.8 204.9 18.9 256 0 256"/>
      <polygon class="st1" points="57.7 256 82.6 138.7 101.4 138.7 76.4 256 57.7 256"/>
      <path class="st1" d="M122.9,191.5h7.5c6.5,0,10.7-3.9,12.2-11.7l2.9-13.7c.3-1.7.5-3,.5-4.2,0-4.2-2.2-6.4-6.7-6.4h-8.9l-7.5,36h0ZM90.2,256l25-117.3h27c14.8,0,22.8,7.5,22.8,20.8s-.3,5.5-1,8.5l-2.5,11.9c-4,19.3-13.9,28.3-32.9,28.3h-9.4l-10.1,47.8h-18.9Z"/>
    </g>
    <g>
      <polygon class="st1" points="196.4 256 217.7 155.5 198.5 155.5 202.1 138.7 259.5 138.7 255.8 155.5 236.5 155.5 215.2 256 196.4 256"/>
      <path class="st1" d="M284.3,230.6l13.6-64.2c.3-1.5.5-2.9.5-4.2,0-5.5-3-8.4-9.2-8.4s-8.5,3.5-10.1,10.6l-13.6,64.2c-.3,1.5-.5,2.8-.5,4,0,5.5,3.2,8.4,9.4,8.4s8.4-3.5,9.9-10.4M246.2,234.1c0-2.7.3-5.5,1-8.5l13.2-62c3.5-17.3,14.1-26.5,29.5-26.5s27.2,8.4,27.2,23.6-.3,5.7-1,8.7l-13.2,62c-3.9,17.6-13.6,26.3-29.5,26.3s-27.2-8.4-27.2-23.6"/>
      <path class="st1" d="M313.9,234.6c0-2.8.3-5.9,1-9l18.6-86.8h18.8l-19.3,90.2c-.3,1.5-.5,2.9-.5,4,0,5.4,3,8,9.2,8s8.5-3.4,9.9-10.2l19.6-92h18.1l-19.8,92.7c-3.7,17.6-13.4,26.3-29,26.3s-26.7-8.2-26.7-23.1"/>
      <path class="st1" d="M410.2,189h5.5c7.5,0,12.4-4.4,14.4-13.1l2-9c.5-1.8.7-3.7.7-5.4,0-4-2.3-6-7-6h-8.4l-7.2,33.5ZM377.1,256l25-117.3h27c14.6,0,22.6,6.9,22.6,20.1s-.3,5.7-1,9.1l-1.2,5.7c-2.9,14.1-7.9,21.3-17.4,23.8v.2c5.7,1.8,8.5,6.7,8.5,14.6s-.3,6.5-1.2,9.7l-4.4,20.6c-1.2,5.5-1.7,9-1.7,10.6s.2,1.7.3,3h-18.3c-.2-2-.3-3.5-.3-4.4,0-2.5.5-6,1.5-10.7l4.5-21.5c.7-2.9,1-5.2,1-7,0-5.2-2.3-6.7-8.9-6.7h-6.7l-10.7,50.3h-18.8.2v-.1h0Z"/>
    </g>
    <path class="st1" d="M509.8,116.9h5.1l-34.2,160.9h-5.1l34.2-160.9h0Z"/>
    <g class="st0">
      <g class="st0">
        <path class="st1" d="M527.63,256.19l3.33-15.97c1.83-8.65,4.83-15.97,8.82-22.13s10.15-12.31,18.3-18.47c8.49-6.49,14.31-11.98,17.8-16.31,3.49-4.49,5.99-9.32,7.16-14.64.5-1.83.67-3.83.67-5.82,0-5.49-3-8.15-8.82-8.15-5.33,0-8.82,3.49-10.32,10.32l-2.83,13.64h-17.64l3-14.31c3.83-17.47,13.48-26.29,29.12-26.29,17.31,0,26.29,8.15,26.29,22.63,0,2.33-.33,5.49-1.17,9.32-3.16,14.48-11.98,26.96-31.78,42.26-13.15,9.98-17.3,15.47-19.14,23.46l-.83,3.83h34.94l-3.49,16.64h-53.41,0Z"/>
        <path class="st1" d="M596.18,234.39c0-2.66.33-5.49,1-8.49l13.15-61.57c3.49-17.14,13.98-26.29,29.29-26.29,16.64,0,26.96,8.32,26.96,23.46,0,2.83-.33,5.66-1,8.65l-13.15,61.57c-3.83,17.47-13.48,26.12-29.29,26.12-16.64,0-26.96-8.32-26.96-23.46h0ZM633.95,230.9l13.48-63.73c.33-1.5.5-2.83.5-4.16,0-5.49-3-8.32-9.15-8.32-5.16,0-8.49,3.49-9.98,10.48l-13.48,63.73c-.33,1.5-.5,2.83-.5,3.99,0,5.49,3.16,8.32,9.32,8.32,5.16,0,8.32-3.49,9.82-10.32h-.01Z"/>
        <path class="st1" d="M655.91,256.19l3.33-15.97c1.83-8.65,4.83-15.97,8.82-22.13s10.15-12.31,18.3-18.47c8.49-6.49,14.31-11.98,17.8-16.31,3.49-4.49,5.99-9.32,7.15-14.64.5-1.83.67-3.83.67-5.82,0-5.49-3-8.15-8.82-8.15-5.32,0-8.82,3.49-10.32,10.32l-2.83,13.64h-17.64l3-14.31c3.83-17.47,13.48-26.29,29.12-26.29,17.31,0,26.29,8.15,26.29,22.63,0,2.33-.33,5.49-1.17,9.32-3.16,14.48-11.98,26.96-31.78,42.26-13.15,9.98-17.31,15.47-19.14,23.46l-.83,3.83h34.94l-3.49,16.64h-53.41.01Z"/>
        <path class="st1" d="M724.46,234.89c0-2.83.33-5.82,1-8.99l12.98-60.74c3.83-18.14,13.64-27.12,29.29-27.12,17.8,0,26.96,8.32,26.96,22.8,0,2.5-.33,5.49-1,8.65h-17.64c.67-2.66,1-4.99,1-6.82,0-5.32-3.16-7.99-9.48-7.99-5.49,0-9.15,4.33-10.98,13.15l-4.66,21.96c4.49-5.82,9.98-8.65,16.47-8.65,11.81,0,18.3,6.82,18.3,18.8,0,3.33-.33,6.66-1.16,9.82l-4.83,21.96c-3.83,16.81-13.98,26.12-29.45,26.12-17.3,0-26.79-8.49-26.79-22.96h-.01ZM762.07,231.23l4.49-21.13c.33-1.66.5-3.16.5-4.33,0-5.33-3-7.99-8.82-7.99-5.49,0-8.82,3.49-10.32,10.32l-4.49,21.13c-.33,1.5-.5,3-.5,4.16,0,5.33,3,7.99,8.99,7.99,5.32,0,8.65-3.33,10.15-10.15Z"/>
      </g>
    </g>
  </g>
</svg>