<?xml version="1.0" encoding="UTF-8"?>
<svg id="Livello_1" xmlns="http://www.w3.org/2000/svg" version="1.1" viewBox="0 0 1000 253.7">
  <!-- Generator: Adobe Illustrator 29.4.0, SVG Export Plug-In . SVG Version: 2.1.0 Build 152)  -->
  <defs>
    <style>
      .st0 {
        fill: #fff;
      }
    </style>
  </defs>
  <g>
    <path class="st0" d="M773.1,231.6v1.4c84.1-.1,147.2-.3,226.9-.7-79.6-.4-142.8-.6-226.9-.7Z"/>
    <path class="st0" d="M533.5,231.6c-84.1.1-148.3.3-227.9.7,79.6.4,143.8.6,227.9.7v-1.4Z"/>
  </g>
  <g>
    <path class="st0" d="M602.7,219.4h-11.3v33.9h-8.6v-33.9h-11.4v-8.2h31.4v8.2h0Z"/>
    <path class="st0" d="M645.3,242.9c0,1.7-.4,3.2-1.2,4.3-2,2.5-3.7,4.2-5.1,5.1-1.5.9-3.1,1.3-4.7,1.3h-10.7c-1.6,0-3.2-.4-4.7-1.3-.7-.4-1.6-1.2-2.7-2.4-1.1-1.1-1.9-2.1-2.4-2.8-.8-1.2-1.2-2.6-1.2-4.3v-21.2c0-1.8.4-3.3,1.2-4.4.5-.7,1.3-1.6,2.4-2.7,1.1-1.1,2-1.9,2.7-2.3,1.5-.9,3.1-1.3,4.7-1.3h10.7c1.6,0,3.2.4,4.7,1.3,1.3.8,3,2.4,5.1,5,.8,1.2,1.2,2.6,1.2,4.4v21.2ZM636.8,242.9v-21.2c-.6-1.1-1.5-2-2.5-2.6h-10.3c-1,.8-1.9,1.7-2.6,2.7v21.1c.9,1.3,1.8,2.1,2.5,2.6h10.3c.9-.6,1.8-1.5,2.6-2.6h0Z"/>
    <path class="st0" d="M689.1,242.9c0,1.7-.4,3.2-1.2,4.3-.5.8-1.3,1.7-2.4,2.8-1.1,1.1-2,1.9-2.7,2.3-1.6.9-3.2,1.3-4.7,1.3h-10c-1.6,0-3.2-.4-4.7-1.3-.7-.4-1.6-1.2-2.7-2.4-1.1-1.1-1.9-2.1-2.4-2.8-.8-1.2-1.2-2.6-1.2-4.3v-31.7h8.6v31.6c1.1,1.4,2,2.3,2.6,2.7h9.6c.9-.5,1.7-1.4,2.5-2.6v-31.7h8.6v31.7h0Z"/>
    <path class="st0" d="M731.8,227.3c0,1.7-.4,3.3-1.3,4.6-.3.5-.9,1.1-1.7,2-.9.9-1.6,1.4-2.1,1.8-.4.3-.9.6-1.7,1l9.1,16.7h-9.5l-8.4-16.1h-6.8v16.1h-8.6v-42.2h20.5c2,0,3.8.5,5.3,1.6,1.4,1.1,2.7,2.4,3.8,3.9.9,1.2,1.3,2.8,1.3,4.7v5.9h0ZM723.3,227.3v-6.3c-.5-.8-1.1-1.3-1.8-1.7h-12v9.6h12c.2,0,.4-.2.9-.6.4-.4.8-.8,1-1.1h0Z"/>
  </g>
  <g>
    <path class="st0" d="M345.8,148.5c0,2.3-.6,4.2-1.7,5.9-.4.6-1.1,1.4-2.3,2.6-1.1,1.1-2,1.9-2.7,2.4-1.9,1.4-4.2,2.1-6.9,2.1h-15.5v20.9h-11.1v-54.8h26.7c2.7,0,5,.7,6.9,2.1,1.8,1.4,3.5,3.1,4.9,5,1.2,1.6,1.7,3.6,1.7,6.1v7.8h0ZM334.6,148.5v-8.1c-.6-1-1.4-1.7-2.4-2.2h-15.5v12.5h15.5c.2,0,.6-.3,1.1-.8.6-.5,1-1,1.2-1.4h0Z"/>
    <path class="st0" d="M403.7,148.5c0,2.3-.6,4.2-1.7,5.9-.4.6-1.1,1.4-2.3,2.6-1.1,1.1-2,1.9-2.7,2.4-.5.4-1.2.8-2.2,1.3l11.9,21.8h-12.4l-10.9-20.9h-8.8v20.9h-11.1v-54.8h26.7c2.7,0,5,.7,6.9,2.1,1.8,1.4,3.5,3.1,4.9,5,1.2,1.6,1.7,3.6,1.7,6.1v7.8h0ZM392.6,148.5v-8.1c-.6-1-1.4-1.7-2.4-2.2h-15.5v12.5h15.5c.2,0,.6-.3,1.1-.8.6-.5,1-1,1.2-1.4h0Z"/>
    <path class="st0" d="M460.3,182.3h-36v-54.8h36v10.7h-24.9v11.3h24v10.7h-24v11.5h24.9v10.7h0Z"/>
    <path class="st0" d="M529.1,182.3h-11.1v-33c-1.2,2.4-2.8,5.9-5,10.5-2.1,4.6-3.6,7.7-4.5,9.4h-7.3l-9.4-19.8v32.9h-11.1v-54.8h12.2l12.2,24.9c1.1-2.2,3-6.1,5.7-11.8,2.7-5.7,4.8-10,6.3-13h12.1v54.8h0Z"/>
    <path class="st0" d="M561.4,182.3h-11.3v-54.8h11.3v54.8Z"/>
    <path class="st0" d="M618.2,182.3h-36v-54.8h36v10.7h-24.9v11.3h24v10.7h-24v11.5h24.9v10.7h0Z"/>
    <path class="st0" d="M678.6,148.5c0,2.3-.6,4.2-1.7,5.9-.4.6-1.1,1.4-2.3,2.6-1.1,1.1-2,1.9-2.7,2.4-.5.4-1.2.8-2.2,1.3l11.9,21.8h-12.4l-10.9-20.9h-8.8v20.9h-11.1v-54.8h26.7c2.7,0,5,.7,6.9,2.1,1.8,1.4,3.5,3.1,4.9,5,1.2,1.6,1.7,3.6,1.7,6.1v7.8h0ZM667.5,148.5v-8.1c-.6-1-1.4-1.7-2.4-2.2h-15.5v12.5h15.5c.2,0,.6-.3,1.1-.8.6-.5,1-1,1.2-1.4h0Z"/>
    <path class="st0" d="M770.5,148.5c0,2.3-.6,4.2-1.7,5.9-.4.6-1.1,1.4-2.3,2.6-1.1,1.1-2,1.9-2.7,2.4-1.9,1.4-4.2,2.1-6.9,2.1h-15.5v20.9h-11.1v-54.8h26.7c2.7,0,5,.7,6.9,2.1,1.8,1.4,3.5,3.1,4.9,5,1.2,1.6,1.7,3.6,1.7,6.1v7.8h0ZM759.3,148.5v-8.1c-.6-1-1.4-1.7-2.4-2.2h-15.5v12.5h15.5c.2,0,.6-.3,1.1-.8.6-.5,1-1,1.2-1.4h0Z"/>
    <path class="st0" d="M831.3,182.3h-11.9l-3.6-10.5h-19.1c-.4,1.2-1,2.9-1.9,5.3-.9,2.4-1.5,4.1-1.9,5.3h-11.9l19-54.8h12.3l18.9,54.8h0ZM812.4,161.2l-6.2-17.6c-.7,1.9-1.7,4.9-3.1,8.8-1.4,3.9-2.4,6.9-3.1,8.8h12.3,0Z"/>
    <path class="st0" d="M888.2,168.6c0,2.2-.5,4.1-1.4,5.6-.7,1-1.7,2.1-3.2,3.5-1.4,1.4-2.6,2.4-3.6,2.9-2.2,1.2-4.1,1.7-5.8,1.7h-26.6v-54.8h26.6c2.3,0,4.3.5,6.1,1.7,1.9,1.2,4.1,3.4,6.5,6.6,1,1.4,1.6,3.4,1.6,5.7v27.1h0ZM877.1,168.2v-26.2c-.6-1.5-1.7-2.8-3.4-3.8h-15v33.4h15c1.4-.9,2.6-2,3.4-3.5Z"/>
    <path class="st0" d="M944.3,182.3h-36v-54.8h36v10.7h-24.9v11.3h24v10.7h-24v11.5h24.9v10.7h0Z"/>
    <path class="st0" d="M1000,182.3h-35.4v-54.8h11.1v44.1h24.3v10.8h0Z"/>
  </g>
  <path class="st0" d="M641.3,51.4c3.1.1,6.1.4,9.1.4s5.4-.2,8-.4l-8.3-21.5-9,21.5h0Z"/>
  <path class="st0" d="M507.2,51.4c3.1.1,6.1.4,9.2.4s5.4-.2,8.1-.4l-8.3-21.6-9,21.6h0Z"/>
  <path class="st0" d="M409.4,51.4c3.1.1,6.1.4,9.1.4s5.4-.2,8.1-.4l-8.3-21.6-9,21.6h0Z"/>
  <path class="st0" d="M745.2,31.4c0-3.7-.6-6.9-3.7-9.1-2.4-1.8-5.3-2.2-8.1-2.2s-4.9.4-6.2.4v22.7c1.7.1,3.8.3,6.1.3,8.8,0,12-6.4,12-12.1h0Z"/>
  <path class="st0" d="M353,19.4c-9,0-20.8,5.9-20.8,28.1s4.7,25.1,20.9,25.1,12.5-3.3,16.1-8.8c3.6-5.5,4.5-12.4,4.5-19.7,0-12.8-6.2-24.7-20.6-24.7h0Z"/>
  <path class="st0" d="M586.8,31.3c0-3.7-.6-6.9-3.7-9.1-2.4-1.8-5.3-2.2-8.2-2.2s-4.9.4-6.2.4v22.8c1.7.1,3.8.3,6.1.3,8.8,0,12.1-6.4,12.1-12.1h0Z"/>
  <path class="st0" d="M305.6,0v98.9h694.4V0H305.6ZM385.7,87.3c-3,1.3-7.1,3.6-9.8,5.5l-20.1-15.7c-1,.1-1.9.1-2.9.1-7.7,0-16.7-1.1-24.3-8.9-7.4-7.5-8.4-16.5-8.4-21.2,0-22.3,15.3-32.2,33-32.2s32.5,9,32.5,30.1-7.7,25.7-19.8,30.1l19.8,12.3h0ZM443.1,75.4c-2.5,0-4.9.4-6.5.5l-3.7-9.8-3.7-9.3c-3.8-.2-7.5-.4-11.3-.4s-7,.2-10.6.4c-2.8,6.8-5.6,14-7,19.1-1.1-.2-2.8-.5-4.2-.5s-2.7.4-4,.5l10.2-22.7c8.9-19.8,14-31.2,16.1-38.5,1,.3,1.8.4,2.9.4s1.8-.2,2.8-.4c4.2,12,9.5,24.3,12.6,31.7,3.3,7.7,9.1,20.9,13.1,29.4-1.3-.1-4.4-.5-6.9-.5h.1ZM469.8,75.4c-1.5,0-2.8.2-6,.5.4-6.7.9-13.5.9-20.2v-24.5c-.1-3.3-.2-6.3-.3-9.8h-4.4c-.8,0-9.2.2-13.7.6.3-1.1.4-2.2.4-3.3s-.2-2.2-.4-3.3c7,.4,16.7.5,23.5.5s15-.1,23.5-.5c-.3,1.5-.4,2.6-.4,3.3s.2,1.8.4,3.2c-5.2-.5-11.4-.6-17.5-.6-.1,3.2-.2,6.5-.2,9.9v32.5c0,6.7.4,9.6.6,12.1-2.5-.3-5.4-.5-6.4-.5h0ZM540.9,75.4c-2.5,0-4.9.4-6.5.5l-3.7-9.8-3.7-9.3c-3.8-.2-7.5-.4-11.3-.4s-7,.2-10.6.4c-2.8,6.8-5.6,14-7,19.1-1.1-.2-2.8-.5-4.2-.5s-2.7.4-4,.5l10.2-22.7c8.9-19.8,14-31.2,16.1-38.5,1,.3,1.9.4,2.9.4s1.8-.2,2.8-.4c4.2,12,9.5,24.3,12.6,31.7,3.3,7.7,9.1,20.9,13.1,29.4-1.3-.1-4.4-.5-6.9-.5h.1ZM597.2,75.4c-3.4,0-4.4.2-7.1.5-1.3-2-3.3-5.3-4.6-7.3-4.5-6.9-9.9-14.7-14.7-21.3h-2.1v12.5c0,2.6.4,13.9.4,16.2-1.8-.2-3.7-.5-5.9-.5s-4.1.3-6.1.5c.7-17.3.8-19.2.8-36.2s0-12.8-.6-24.1c2,.2,4.3.4,8.8.4s12.5-.4,14.5-.4c5.7,0,10,.7,13.8,4.3,2.6,2.6,4,6.2,4,9.9,0,9.8-7.3,14.7-15.3,16.2l2.5,3.5c1.3,1.8,3.3,4.7,4.6,6.6,6.9,9.8,9.3,12.8,14.8,19.8-2.5-.3-4.7-.5-7.8-.5h0ZM674.9,75.4c-2.5,0-4.9.4-6.5.5l-3.7-9.7-3.7-9.3c-3.8-.2-7.5-.4-11.3-.4s-7,.2-10.6.4c-2.8,6.8-5.6,14-7,19-1.1-.2-2.8-.5-4.2-.5s-2.7.4-4,.5l10.2-22.6c8.8-19.8,13.9-31.2,16-38.4,1,.3,1.9.4,2.9.4s1.8-.2,2.8-.4c4.2,12,9.5,24.3,12.6,31.7,3.3,7.6,9.1,20.9,13.1,29.4-1.3,0-4.4-.5-6.9-.5h.2ZM700.9,75.9c-2,0-4.1-.5-6.2-.5s-4.4.4-6.3.5c1-10.4,1-24.9,1-39.9s0-11.7-.9-20.3c1.7.2,4.9.5,6.2.5,1.9,0,4.1-.3,6.2-.5-1,6.5-1,21.7-1,30.5,0,13.1.2,22.6.9,29.6h0ZM755.6,75.4c-3.4,0-4.4.2-7.1.5-1.3-2-3.2-5.3-4.6-7.3-4.4-6.9-9.9-14.6-14.6-21.3h-2.1v12.4c0,2.6.4,13.9.4,16.1-1.8-.2-3.7-.5-5.9-.5s-4.1.3-6.1.5c.7-17.3.8-19.2.8-36.1s0-12.7-.6-24c2,.2,4.3.4,8.8.4s12.4-.4,14.5-.4c5.7,0,10,.7,13.8,4.3,2.6,2.5,4,6.2,4,9.9,0,9.8-7.3,14.7-15.3,16.2l2.5,3.5c1.3,1.8,3.3,4.7,4.6,6.5,6.9,9.8,9.3,12.8,14.8,19.7-2.5-.3-4.7-.5-7.8-.5h0ZM827.4,75.9c-1.3-.3-2.3-.5-3.5-.5s-2.9.4-3.8.5c-3.3-10.6-3.6-11.7-5-15.7-1.1-3-5.5-16.4-6.5-19.1-1-2.8-2.6-7.3-3.6-10.1l-2.6,7.3c-4.5,12.5-4.9,13.9-8.3,23.9-1.2,3.6-2.9,9.2-4.3,13.8-1.5-.3-2.4-.5-3.3-.5s-2.4.3-3.6.5l-2.2-6.6c-3.2-9.6-5.8-17.5-9.8-28.9-2.4-6.6-5.5-15.1-9-24.5,1.8.2,4.7.5,6.9.5s3.9-.2,6.1-.5c2.7,10.3,8.4,27.4,12.5,39.7l1.7,4.9,2.2-5.7c.9-2.4,10.2-28.1,12.8-38.9,1.1.2,2.3.5,3.9.5s2.6-.3,3.9-.5c.1.2,5.5,17.7,6.9,21.9,2.5,7.7,5.3,15.3,8,22.9,2.5-6.7,3.1-8.1,7.2-20.4,2.5-7.6,4.1-13.1,7.3-24.4,1,.3,2.4.5,4,.5s2.6-.2,4-.5c-5.3,13.2-8.3,21-13.1,34.6-4.9,14-5.3,15.1-8.6,25.5h0ZM892.2,75.4c-2.5,0-4.9.4-6.5.5l-3.7-9.7-3.7-9.3c-3.8-.2-7.5-.4-11.2-.4s-7,.2-10.5.4c-2.8,6.8-5.6,14-7,19-1.1-.2-2.8-.5-4.2-.5s-2.7.4-4,.5l10.2-22.6c8.8-19.8,13.9-31.2,16-38.4,1,.3,1.9.4,2.9.4s1.8-.2,2.8-.4c4.2,12,9.5,24.3,12.6,31.7,3.3,7.6,9.1,20.9,13.1,29.4-1.3,0-4.4-.5-6.8-.5ZM934.7,30.4c-4,6.3-7.3,12.9-11,19.2-.6,1.1-1.1,2-1.1,2.8v3.2c0,7.4.3,12.1.6,20.3-2-.2-4-.5-6.1-.5s-4.2.4-5.9.5c.3-6.8.5-18.3.5-23.7l-5.2-9c-4.4-7.7-12-19.8-16.5-27.4,3.2.4,5.3.5,7.2.5s4.7-.1,7.2-.5c4.6,9.6,7.9,16.6,15.3,29.6,7.5-12.8,8.8-15.8,15.2-29.6,1.4.3,3.2.5,5.1.5s2.7-.2,3.7-.5c-1.3,2.4-7.7,12.5-9.1,14.6h0ZM963.2,77.1c-7.5,0-13.2-2.9-16.4-4.5,1.5-4.6,1.6-5.7,2-9.9h1.2c4,8.8,8.4,10.1,13.6,10.1s11.5-4.7,11.5-11-5.5-9.4-7.2-10.1c-2.5-1.1-6.6-2.6-9.1-3.7-8.5-3.8-11.1-8.3-11.1-15.5s4.6-17.5,20.5-17.5,10.3,1.7,14.6,3.6c-1.8,4.3-1.9,5-2.7,8.4h-1.2c-1.3-5-5.9-7.6-11.5-7.6s-10.3,4.3-10.3,9.5,4.5,8.1,12.2,11.1c6.8,2.6,9.4,3.6,11.9,6.4,3.7,4,4.3,9.1,4.3,11.6,0,9-6.2,19.2-22.3,19.2Z"/>
  <path class="st0" d="M858.6,51.4c3.1.1,6.1.4,9.1.4s5.4-.2,8.1-.4l-8.3-21.5-9,21.5Z"/>
  <path class="st0" d="M260.3,94.2c-.9-2.8-5.5-11.3-11.1-16.3-6.9-6.1-9.5-7-17.7-6.5-9.7,1.1-21.8,3.5-26,8.7-6.3,7-15.2,26.1-25.5,36.1-1.4.5-8.8,2.8-15.1,4.9h-23.1l-7-21.7v-16.1c6.3-12.9,21.7-27.2,26.4-35.4,3.6-5.6,2.2-17.9.3-27.4-2.1-8-3.8-10.2-11.7-14.8-6.5-3.8-16-5.6-19-5.6s-12.4,1.8-19,5.6c-7.9,4.6-9.5,6.9-11.7,14.8-1.9,9.5-3.3,21.8.3,27.4,4.7,8.2,20.1,22.5,26.4,35.4v16.1l-7,21.7h-23.1c-6.3-2-13.6-4.4-15.1-4.9-10.3-10-19.1-29.1-25.5-36.1-4.2-5.2-16.3-7.7-26-8.7-8.3-.4-10.9.5-17.7,6.5-5.6,5-10.2,13.5-11.1,16.3-.9,2.8-2.2,12.4-.6,19.8,2,8.9,3.6,11.2,10.5,15.7,8.5,4.8,19.7,9.9,26.2,8.2,9.3-1.9,27.6-12.2,41.8-14.2,1.5.5,9.3,3,15.7,5.1l18.2,13.2-7.1,21.9c-3.9,5.4-8.5,11.7-9.4,13-12.6,6.7-33.6,9.2-42.2,13.1-6.3,2.5-12.3,13.2-16.3,22-2.9,7.7-2.9,10.5.8,18.9,3.1,6.9,9.7,13.9,12.1,15.7,2.4,1.7,11.1,5.9,18.6,6.6,9.1.9,11.7,0,18.2-5.1,7.2-6.6,15.5-15.7,15.9-22.4,1-9.4-3.1-30-.6-44.2.9-1.3,5.7-7.9,9.7-13.3l18.3-13.3,18.3,13.3c4,5.4,8.7,12,9.6,13.3,2.5,14.1-1.6,34.8-.6,44.2.4,6.7,8.7,15.8,15.9,22.4,6.4,5.2,9.1,6,18.2,5.1,7.5-.8,16.2-4.9,18.6-6.6,2.4-1.7,9.1-8.7,12.1-15.7,3.6-8.4,3.7-11.1.8-18.9-4-8.8-10.1-19.6-16.3-22-8.6-3.9-29.5-6.4-42.2-13.1-.9-1.2-5.5-7.6-9.4-13l-7.1-21.9,18.2-13.2c6.4-2.1,14.1-4.6,15.7-5.1,14.2,2,32.6,12.2,41.8,14.2,6.5,1.7,17.7-3.4,26.2-8.2,6.9-4.5,8.5-6.8,10.5-15.7,1.6-7.4.3-17-.6-19.8h0Z"/>
</svg>